
<global>
amp_veltrack=0
ampeg_release=0.35
</global>

<group>
group_label=Group_0-64
lpc_hicc1=64
lpc_locc1=0

<region>
hikey=A#5
hivel=127
lokey=A5
lovel=1
lpc=/HCBQZ5x18FC4axBCgUnwfmuEUFnxQfBtdrJQEz0nr48vbe/yzgNQO3anr54WFk/gC+zvTY0Ez2pKN4/dJGmvvQUoj/iTta/aQOjQEpPjMAY1BBANfuCPSRXLUBZkUPA
lpc_rms=-30.53
pitch_keycenter=A#5
sample=Piccolo_invertedmordent_wholetone_PP_A#4.opus
</region>

<region>
hikey=A#6
hivel=127
lokey=A6
lovel=1
lpc=uD0RQmHG2cFHWudBhElrwUVHm0Gie5DAiOxpQUm3ZEGSrIJACUkjQQAVoEAi4XFB+wwkwQ9WvcDBS2RBX0sRwVPwMEGokNXAXb4HQYj568Bmrr3AZA67PZZSrr+sc0nA
lpc_rms=-27.01
pitch_keycenter=A#6
sample=Piccolo_invertedmordent_wholetone_PP_A#5.opus
</region>

<region>
hikey=C6
hivel=127
lokey=B5
lovel=1
lpc=uzATQZPCX8Fv3TZBzXgWwfYCGUG5N77AzDPIQMiBk8Cz1ExA+Hm+vyMiDEAzvCg9VMFeP1gC3j3elG+/JUcAQDPFIz8/R629L7XOP0VXTr/lpyU/T1SHvUgy+r8V0ixA
lpc_rms=-37.30
pitch_keycenter=C6
sample=Piccolo_invertedmordent_wholetone_PP_C5.opus
</region>

<region>
hikey=C7
hivel=127
lokey=B6
lovel=1
lpc=ZfTcQcsdTMGgj4xBdB2Lv/2zYkGHT7VAoW2JQReyF0B3enhB2TxvQKu3UkEleBXByUNiQIb2nT4tuBjAOq3bvxarpcAXDczAAquVwAykKcCf1drAH8LfPzAtL8Eu4oc+
lpc_rms=-27.81
pitch_keycenter=C7
sample=Piccolo_invertedmordent_wholetone_PP_C6.opus
</region>

<region>
hikey=D6
hivel=127
lokey=C#6
lovel=1
lpc=gJEDQiBcWMJvxE5CnHkWwnSS7kEDcY7B5KCAQQOUI8GhvhNBoypmPZB9r0BIori/JAzcPRMO3EDQ+fu/b3+NQOu9L0AEoirAqAvZQFUSAcDEQ0DBfFqWQcZUM8F6HuRA
lpc_rms=-28.13
pitch_keycenter=D6
sample=Piccolo_invertedmordent_wholetone_PP_D5.opus
</region>

<region>
hikey=D7
hivel=127
lokey=C#7
lovel=1
lpc=P8DaQfMMqsH7RMdBH3ikwGXVV0FPER9BVVkVQfmn1kCUDIBBoH7bQAI7fcD6VtNA7oNxQCDZukCBEPk+JXAoPmO7pL5zWVRAtelswC3F1T+nBg/BbTtyQRgP6MDAC9c/
lpc_rms=-24.57
pitch_keycenter=D7
sample=Piccolo_invertedmordent_wholetone_PP_D6.opus
</region>

<region>
hivel=127
key=E5
lovel=1
lpc=28tiQS0E08FlDOhBhgziwfBevkFKVIrB1PNmQbABSME/tydBVvIJwSdj3ECWAoDA+lqQQOHCBMALZEm+4PM4PYW/0j/UqDvA2JtyQKSuKsDZiL0/QZIbv/Wn0j+TWMA+
lpc_rms=-38.98
sample=Piccolo_invertedmordent_wholetone_PP_E4.opus
</region>

<region>
hikey=E6
hivel=127
lokey=D#6
lovel=1
lpc=6/KAQecZkMGAQGxB/C0gwQoFNUFOLq/AY4ukQLWoiL+brY1AS/FeQHh47D/pUuA/8ogfQB30O0CP2UBAmH8eQJAaBUDaRQHAI3v1vL1Rc0BNA4c+qqVxQM9YJsCsl5ZA
lpc_rms=-34.25
pitch_keycenter=E6
sample=Piccolo_invertedmordent_wholetone_PP_E5.opus
</region>

<region>
hikey=E7
hivel=127
lokey=D#7
lovel=1
lpc=DTwoQj7UKMGjlpFB7AuZQMzbi0HPYYxBuMtHQSlQKEEFHBhBmnZowUmMIkHyNRnA4MmcQHrMs79iglc/7POCPw7KoEDvTnlATbsDwQIPGUGItVJAz3qUP6MgAUDMJYDA
lpc_rms=-22.15
pitch_keycenter=E7
sample=Piccolo_invertedmordent_wholetone_PP_E6.opus
</region>

<region>
hikey=F#5
hivel=127
lokey=F5
lovel=1
lpc=XJfqQK3WQMGUFB1Ba6n4wNuQDUHcIuDA8ji1QASSisDS4T1Apwr5vzZ59D8QFAu/BoibP9212b7xSuo94zZAvwfjMj/rNFY+hoksP+D/Bj8qH7y+XZBhPghWor/uzApA
lpc_rms=-40.91
pitch_keycenter=F#5
sample=Piccolo_invertedmordent_wholetone_PP_F#4.opus
</region>

<region>
hikey=F#6
hivel=127
lokey=F6
lovel=1
lpc=iKoPQUqqDsEp4fJA8HBVwK7ym0AATYm/ZdgbQLv4ej/0qBJAPzopQOewkD8JDyRAfk99P7PEbkDOfFA/c3rnPnP4lL+BlCpA8eSqPyIklz+q0Ca/pxTWP82ZKD/5P448
lpc_rms=-37.66
pitch_keycenter=F#6
sample=Piccolo_invertedmordent_wholetone_PP_F#5.opus
</region>

<region>
hikey=F#7
hivel=127
lokey=F7
lovel=1
lpc=/mq2QYRuj8GpHrdBdfgHwWOks0Ealj7AbS+SQS9s9T8Ww5G/Qx5NQaGiMEC94QxBaFVOv+dqBEF9Eeo9fHUoQB07DrxrsydBeVHqwHVIC0FWT5rAvJpzQNmBdr88WN8/
lpc_rms=-12.27
pitch_keycenter=F#7
sample=Piccolo_invertedmordent_wholetone_PP_F#6.opus
</region>

<region>
hikey=G#5
hivel=127
lokey=G5
lovel=1
lpc=/riLQb9M4MGEO+FBngKOwSiAikGAKn3B6ZyAQayjA8Gi0bdADUEZwOmXp0BERKK/II0YP/woNECnNS0/oxgRP2e+kj6UMYhAkxICwEnkQkDYjHq/Ad7WQGhbAsGlZwtB
lpc_rms=-30.20
pitch_keycenter=G#5
sample=Piccolo_invertedmordent_wholetone_PP_G#4.opus
</region>

<region>
hikey=G#6
hivel=127
lokey=G6
lovel=1
lpc=vckLQQuxjMDSZpxAetgKwCiQiUAohxO+mpNQQCuiyz4IoUJARylYP+FdBECRvIY/qbUPQLWdQT8Dq23AtyTSPkHdqD+yh4s9EZTAPoBJKL+fSwm9nLhevk0rvr75N2C+
lpc_rms=-38.67
pitch_keycenter=G#6
sample=Piccolo_invertedmordent_wholetone_PP_G#5.opus
</region>

<region>
hikey=G#7
hivel=127
lokey=G7
lovel=1
lpc=oaR0QfWqDcHPEGRBow3Pv7JPWEH7kYpAisNKQbtbUMDi/V5B+NKMQImPIEGEy41A4DP4QCDnqkATP5RAdQvxQGuPKD/QkCZByls0P+GM7kBGwhK/VjmEQItwnUBYa8U9
lpc_rms=-15.42
pitch_keycenter=G#7
sample=Piccolo_invertedmordent_wholetone_PP_G#6.opus
</region>
</group>

<group>
group_label=Group_65-127
lpc_hicc1=127
lpc_locc1=65

<region>
hikey=A#5
hivel=127
lokey=A5
lovel=1
lpc=iNWGQS6e6sHx9wVCyAbbwSeBwkFmCYnBKWhTQQ1DzcBsSkFAI09FQOfFYMD5RcNAm0mHwAwNfkCfkRo/C9nKv0oy1kA6DQPBI+Q3QW1HHsHkPThBECUSwWNEFkETnJfA
lpc_rms=-22.75
pitch_keycenter=A#5
sample=Piccolo_invertedmordent_wholetone_FF_A#4.opus
</region>

<region>
hikey=A#6
hivel=127
lokey=A6
lovel=1
lpc=0K+yQeKy0sFrps9BaQRJwQcOX0GYX+HAC6lsQWn1Yz2Zyo5AXXOMQLQWOEA1PjZBIcQywRMVKkD5Dj9BbJVFwQgkLUFGI6LA6FKtQN/64sBOJBBA2LKRv6WFXD9cSUrA
lpc_rms=-21.48
pitch_keycenter=A#6
sample=Piccolo_invertedmordent_wholetone_FF_A#5.opus
</region>

<region>
hikey=C6
hivel=127
lokey=B5
lovel=1
lpc=nVx6QWL7uMG6ep1BD5hawUNmP0EiOvvASvPtQAmDTsAtQjJAJBI1PdhYkD/juZ4/6LAcPguZ7D/6lSK/LY8bQChQRj4zMS8/dFGkP98szz7uuwhAtcuVv38x0cBb9dZA
lpc_rms=-26.71
pitch_keycenter=C6
sample=Piccolo_invertedmordent_wholetone_FF_C5.opus
</region>

<region>
hikey=C7
hivel=127
lokey=B6
lovel=1
lpc=lEI1QqAACMLNGA9CCb3OvxRsrkGIr3dB+HSKQQvwfUFrPclBwHkoQcPhEEJAeJ7B+XbBQdjxekFSBvS/UV2ZQVosBcFqKEFB4uW/v7buP0BIHFu+KTscQJJzD8HtRBZB
lpc_rms=-15.77
pitch_keycenter=C7
sample=Piccolo_invertedmordent_wholetone_FF_C6.opus
</region>

<region>
hikey=D6
hivel=127
lokey=C#6
lovel=1
lpc=GUGWQdpG6MFIdrlBsbJJwYb2H0GyhK7AZlilQJqAv70iPBVALWtkPwwDFb/ECiBAhMNMPSdJYD+2rsU+TGk0QDAzMD+2D7s/drAJQNOqWMBIzHLA9kz0QBERO8AZlIw/
lpc_rms=-25.85
pitch_keycenter=D6
sample=Piccolo_invertedmordent_wholetone_FF_D5.opus
</region>

<region>
hikey=D7
hivel=127
lokey=C#7
lovel=1
lpc=qBqaQWIpccGTx4RBsuaFwHlxQkFsrc9Ax9BBQfPwSECLOW9BuT3iQFZVWEAzdQZBaG4xQTe65EB/MOdAp+iJQOsBS0B5nwdBUe82P3XNwUAJybvAp3FVQRNVu8B+PnNA
lpc_rms=-22.85
pitch_keycenter=D7
sample=Piccolo_invertedmordent_wholetone_FF_D6.opus
</region>

<region>
hivel=127
key=E5
lovel=1
lpc=tbU1Qe03w8GTetBB/vazwTFmnEFDsGvBOX4kQRKS8sB3rvdA3rvSwEtDj0DNdz/Atr0sQN5uz7/Pxpu9eybWPifkyD/nA4+/xIufP4LPjL+YtRG8ZBAaP34nkb8BCeI/
lpc_rms=-31.86
sample=Piccolo_invertedmordent_wholetone_FF_E4.opus
</region>

<region>
hikey=E6
hivel=127
lokey=D#6
lovel=1
lpc=taZkQUQGkMGxXm5BWo7rwATvCUExMJbAqZWEQM+fkDuE6HtAaSUEQMXBmT8e2kBAJzfnP8UGG0C5F9M/zCxAQMWRH0DDMgHAFakXwPli8kAtMa+/eKClP/aOmb+LDoBA
lpc_rms=-30.45
pitch_keycenter=E6
sample=Piccolo_invertedmordent_wholetone_FF_E5.opus
</region>

<region>
hikey=E7
hivel=127
lokey=D#7
lovel=1
lpc=7O4CQtFzn8Ghg61Bk2UJwL1uikG0GStBEG4iQfQISEEMYSBBKy0ywXQkhUEqvv0/T9ZFQTVTdMDMv89AbTNZQHN2k0DpLKw/lRUywBYEfEGXhfXAwfeKQEqDjz+ejaG/
lpc_rms=-21.58
pitch_keycenter=E7
sample=Piccolo_invertedmordent_wholetone_FF_E6.opus
</region>

<region>
hikey=F#5
hivel=127
lokey=F5
lovel=1
lpc=28bXQGzuX8HjDmtBxHczwTL8G0H7qAjB6Tv0QDLwuMBc54xAM71hwLD2TEAs5O+/WTqnP/JFTz05xRC/96zvPmePGL+glsA/ILJwv4R6nD9qSKq/K53iP2OTA8BfVuo/
lpc_rms=-34.32
pitch_keycenter=F#5
sample=Piccolo_invertedmordent_wholetone_FF_F#4.opus
</region>

<region>
hikey=F#6
hivel=127
lokey=F6
lovel=1
lpc=X0vWQZwR8cGxWcpBwkMXwT3FW0HOpcLAY48pQQyL0z9i6+xAz9OrQNAynkCgl+FA4AIjQB74LEHE0s0/NhSfPfSpSMDLsEJBiQ5sP5a6Cj/Xa+4//GKRQGXuMr4xii0/
lpc_rms=-24.14
pitch_keycenter=F#6
sample=Piccolo_invertedmordent_wholetone_FF_F#5.opus
</region>

<region>
hikey=F#7
hivel=127
lokey=F7
lovel=1
lpc=/mq2QYRuj8GpHrdBdfgHwWOks0Ealj7AbS+SQS9s9T8Ww5G/Qx5NQaGiMEC94QxBaFVOv+dqBEF9Eeo9fHUoQB07DrxrsydBeVHqwHVIC0FWT5rAvJpzQNmBdr88WN8/
lpc_rms=-12.27
pitch_keycenter=F#7
sample=Piccolo_invertedmordent_wholetone_FF_F#6.opus
</region>

<region>
hikey=G#5
hivel=127
lokey=G5
lovel=1
lpc=xmluQYnC68Gpig5C/r3dwepXqEFj7GHBIPEzQXP3l8AQlSVAAEIIv/z9TkAohcq/4YACQKWDpD7vX1s/WjHgPkKsdj/GfKg/ASUYP5RB2L7kkr0/4qNoQAmCq8AEQLZA
lpc_rms=-25.21
pitch_keycenter=G#5
sample=Piccolo_invertedmordent_wholetone_FF_G#4.opus
</region>

<region>
hikey=G#6
hivel=127
lokey=G6
lovel=1
lpc=cg2TQfX3vMGqJp9BbwMGwVgbEEHY+gHAYTqRQBNLUkBgTDI/mcuyQNyqzT8+a4xAOhMhQGCnXEDmRirBKV9hQXT6r78Eg8m/vgB2QKRKA8Dn3GpAhhckwLiTIUAKc8u/
lpc_rms=-22.88
pitch_keycenter=G#6
sample=Piccolo_invertedmordent_wholetone_FF_G#5.opus
</region>

<region>
hikey=G#7
hivel=127
lokey=G7
lovel=1
lpc=oaR0QfWqDcHPEGRBow3Pv7JPWEH7kYpAisNKQbtbUMDi/V5B+NKMQImPIEGEy41A4DP4QCDnqkATP5RAdQvxQGuPKD/QkCZByls0P+GM7kBGwhK/VjmEQItwnUBYa8U9
lpc_rms=-15.42
pitch_keycenter=G#7
sample=Piccolo_invertedmordent_wholetone_FF_G#6.opus
</region>
</group>